<?xml version="1.0" encoding="iso-8859-1"?>
<!-- Generator: Adobe Illustrator 19.0.0, SVG Export Plug-In . SVG Version: 6.00 Build 0)  -->
<svg version="1.1" id="Capa_1" xmlns="http://www.w3.org/2000/svg" xmlns:xlink="http://www.w3.org/1999/xlink" x="0px" y="0px"
	 viewBox="0 0 512 512" style="enable-background:new 0 0 512 512;" xml:space="preserve">
<circle style="fill:#35CCFF;" cx="256" cy="256" r="256"/>
<path style="fill:#00BAFF;" d="M512,256c0-12.435-0.905-24.657-2.618-36.619l-91.715-91.715l-3.792,2.958L386.25,103
	l-91.168,141.832L153.25,103L94.333,396.333l110.558,110.558C221.407,510.238,238.498,512,256,512C397.385,512,512,397.385,512,256z
	"/>
<rect x="94.33" y="127.67" style="fill:#FF6838;" width="323.33" height="105"/>
<rect x="255.67" y="127.67" style="fill:#AE4E32;" width="162" height="105"/>
<rect x="94.33" y="194.33" style="fill:#FFFFFF;" width="323.33" height="202"/>
<rect x="255.67" y="194.33" style="fill:#E0E0E0;" width="162" height="202"/>
<path style="fill:#35CCFF;" d="M212.343,278.055h-12.566l7.862-7.862l-5.815-5.815l-13.677,13.677h-10.915
	c-0.428-1.757-1.12-3.411-2.038-4.915l24.829-24.829l-5.815-5.815l-24.829,24.829c-1.504-0.918-3.158-1.61-4.915-2.038v-10.915
	l13.676-13.677l-5.815-5.815l-7.862,7.862v-12.566h-8.223v12.566l-7.862-7.862l-5.815,5.815l13.676,13.677v10.915
	c-1.757,0.428-3.411,1.121-4.915,2.038l-24.829-24.829l-5.815,5.815l24.829,24.829c-0.918,1.503-1.61,3.158-2.038,4.915H132.56
	l-13.677-13.677l-5.815,5.815l7.862,7.862h-12.566v8.223h12.566l-7.862,7.862l5.815,5.815l13.677-13.677h10.915
	c0.428,1.757,1.12,3.411,2.038,4.915l-24.829,24.829l5.815,5.815l24.829-24.829c1.504,0.918,3.158,1.61,4.915,2.038v10.915
	l-13.676,13.677l5.815,5.815l7.862-7.862v12.566h8.223V321.59l7.862,7.862l5.815-5.815l-13.676-13.677v-10.915
	c1.757-0.428,3.411-1.121,4.915-2.038l24.829,24.829l5.815-5.815l-24.829-24.829c0.918-1.504,1.61-3.158,2.038-4.915h10.915
	l13.677,13.677l5.815-5.815l-7.862-7.862h12.566v-8.222H212.343z M164.465,265.287v-10.915 M160.354,291.318
	c-5.046,0-9.152-4.105-9.152-9.152s4.105-9.152,9.152-9.152c5.046,0,9.152,4.105,9.152,9.152S165.4,291.318,160.354,291.318z"/>
<path style="fill:#00BAFF;" d="M212.344,278.055h-12.566l7.862-7.862l-5.815-5.815l-13.677,13.677h-10.915
	c-0.428-1.757-1.12-3.411-2.038-4.915l24.829-24.829l-5.815-5.815l-24.829,24.829c-1.503-0.918-3.158-1.61-4.915-2.038v-10.915
	l13.677-13.677l-5.815-5.815l-7.862,7.862v-12.566h-4.132v42.839c0.007,0,0.013-0.001,0.021-0.001c5.046,0,9.152,4.105,9.152,9.152
	c0,5.046-4.105,9.152-9.152,9.152c-0.007,0-0.013-0.001-0.021-0.001v42.839h4.132V321.59l7.862,7.862l5.815-5.815l-13.677-13.677
	v-10.915c1.757-0.428,3.411-1.12,4.915-2.038l24.829,24.829l5.815-5.815l-24.829-24.829c0.918-1.503,1.61-3.158,2.038-4.915h10.915
	l13.677,13.677l5.815-5.815l-7.862-7.862h12.566V278.055z"/>
<g>
	<path style="fill:#4D4D4D;" d="M374.67,238.25c0-5.52,4.47-10,10-10l0,0c5.52,0,10,4.48,10,10l0,0c0,5.52-4.48,10-10,10l0,0
		C379.14,248.25,374.67,243.77,374.67,238.25z M337.67,238.25c0-5.52,4.47-10,10-10l0,0c5.52,0,10,4.48,10,10l0,0
		c0,5.52-4.48,10-10,10l0,0C342.14,248.25,337.67,243.77,337.67,238.25z M300.67,238.25c0-5.52,4.47-10,10-10l0,0
		c5.52,0,10,4.48,10,10l0,0c0,5.52-4.48,10-10,10l0,0C305.14,248.25,300.67,243.77,300.67,238.25z M263.67,238.25
		c0-5.52,4.47-10,10-10l0,0c5.52,0,10,4.48,10,10l0,0c0,5.52-4.48,10-10,10l0,0C268.14,248.25,263.67,243.77,263.67,238.25z
		 M226.67,238.25c0-5.52,4.47-10,10-10l0,0c5.52,0,10,4.48,10,10l0,0c0,5.52-4.48,10-10,10l0,0
		C231.14,248.25,226.67,243.77,226.67,238.25z"/>
	<path style="fill:#4D4D4D;" d="M374.67,278.47c0-5.52,4.47-10,10-10l0,0c5.52,0,10,4.48,10,10l0,0c0,5.52-4.48,10-10,10l0,0
		C379.14,288.47,374.67,283.99,374.67,278.47z M337.67,278.47c0-5.52,4.47-10,10-10l0,0c5.52,0,10,4.48,10,10l0,0
		c0,5.52-4.48,10-10,10l0,0C342.14,288.47,337.67,283.99,337.67,278.47z M300.67,278.47c0-5.52,4.47-10,10-10l0,0
		c5.52,0,10,4.48,10,10l0,0c0,5.52-4.48,10-10,10l0,0C305.14,288.47,300.67,283.99,300.67,278.47z M263.67,278.47
		c0-5.52,4.47-10,10-10l0,0c5.52,0,10,4.48,10,10l0,0c0,5.52-4.48,10-10,10l0,0C268.14,288.47,263.67,283.99,263.67,278.47z
		 M226.67,278.47c0-5.52,4.47-10,10-10l0,0c5.52,0,10,4.48,10,10l0,0c0,5.52-4.48,10-10,10l0,0
		C231.14,288.47,226.67,283.99,226.67,278.47z"/>
	<path style="fill:#4D4D4D;" d="M374.67,318.69c0-5.52,4.47-9.99,10-9.99l0,0c5.52,0,10,4.47,10,9.99l0,0c0,5.53-4.48,10-10,10l0,0
		C379.14,328.69,374.67,324.22,374.67,318.69z M337.67,318.69c0-5.52,4.47-9.99,10-9.99l0,0c5.52,0,10,4.47,10,9.99l0,0
		c0,5.53-4.48,10-10,10l0,0C342.14,328.69,337.67,324.22,337.67,318.69z M300.67,318.69c0-5.52,4.47-9.99,10-9.99l0,0
		c5.52,0,10,4.47,10,9.99l0,0c0,5.53-4.48,10-10,10l0,0C305.14,328.69,300.67,324.22,300.67,318.69z M263.67,318.69
		c0-5.52,4.47-9.99,10-9.99l0,0c5.52,0,10,4.47,10,9.99l0,0c0,5.53-4.48,10-10,10l0,0C268.14,328.69,263.67,324.22,263.67,318.69z
		 M226.67,318.69c0-5.52,4.47-9.99,10-9.99l0,0c5.52,0,10,4.47,10,9.99l0,0c0,5.53-4.48,10-10,10l0,0
		C231.14,328.69,226.67,324.22,226.67,318.69z"/>
	<path style="fill:#4D4D4D;" d="M374.67,358.92c0-5.53,4.47-10,10-10l0,0c5.52,0,10,4.47,10,10l0,0c0,5.52-4.48,10-10,10l0,0
		C379.14,368.92,374.67,364.44,374.67,358.92z M337.67,358.92c0-5.53,4.47-10,10-10l0,0c5.52,0,10,4.47,10,10l0,0
		c0,5.52-4.48,10-10,10l0,0C342.14,368.92,337.67,364.44,337.67,358.92z M300.67,358.92c0-5.53,4.47-10,10-10l0,0
		c5.52,0,10,4.47,10,10l0,0c0,5.52-4.48,10-10,10l0,0C305.14,368.92,300.67,364.44,300.67,358.92z M263.67,358.92
		c0-5.53,4.47-10,10-10l0,0c5.52,0,10,4.47,10,10l0,0c0,5.52-4.48,10-10,10l0,0C268.14,368.92,263.67,364.44,263.67,358.92z
		 M226.67,358.92c0-5.53,4.47-10,10-10l0,0c5.52,0,10,4.47,10,10l0,0c0,5.52-4.48,10-10,10l0,0
		C231.14,368.92,226.67,364.44,226.67,358.92z"/>
</g>
<g>
	<path style="fill:#333333;" d="M273.67,228.25c-5.53,0-10,4.48-10,10s4.47,10,10,10c5.52,0,10-4.48,10-10
		S279.189,228.25,273.67,228.25z"/>
	<path style="fill:#333333;" d="M310.67,228.25c-5.53,0-10,4.48-10,10s4.47,10,10,10c5.52,0,10-4.48,10-10
		S316.189,228.25,310.67,228.25z"/>
	<path style="fill:#333333;" d="M384.67,228.25c-5.53,0-10,4.48-10,10s4.47,10,10,10c5.52,0,10-4.48,10-10
		S390.189,228.25,384.67,228.25z"/>
	<path style="fill:#333333;" d="M347.67,228.25c-5.53,0-10,4.48-10,10s4.47,10,10,10c5.52,0,10-4.48,10-10
		S353.189,228.25,347.67,228.25z"/>
	<path style="fill:#333333;" d="M273.67,268.47c-5.53,0-10,4.48-10,10s4.47,10,10,10c5.52,0,10-4.48,10-10
		S279.189,268.47,273.67,268.47z"/>
	<path style="fill:#333333;" d="M310.67,268.47c-5.53,0-10,4.48-10,10s4.47,10,10,10c5.52,0,10-4.48,10-10
		S316.189,268.47,310.67,268.47z"/>
	<path style="fill:#333333;" d="M384.67,268.47c-5.53,0-10,4.48-10,10s4.47,10,10,10c5.52,0,10-4.48,10-10
		S390.189,268.47,384.67,268.47z"/>
	<path style="fill:#333333;" d="M347.67,268.47c-5.53,0-10,4.48-10,10s4.47,10,10,10c5.52,0,10-4.48,10-10
		S353.189,268.47,347.67,268.47z"/>
	<path style="fill:#333333;" d="M310.67,308.7c-5.53,0-10,4.47-10,9.99c0,5.53,4.47,10,10,10c5.52,0,10-4.47,10-10
		C320.67,313.17,316.189,308.7,310.67,308.7z"/>
	<path style="fill:#333333;" d="M273.67,308.7c-5.53,0-10,4.47-10,9.99c0,5.53,4.47,10,10,10c5.52,0,10-4.47,10-10
		C283.67,313.17,279.189,308.7,273.67,308.7z"/>
	<path style="fill:#333333;" d="M347.67,308.7c-5.53,0-10,4.47-10,9.99c0,5.53,4.47,10,10,10c5.52,0,10-4.47,10-10
		C357.67,313.17,353.189,308.7,347.67,308.7z"/>
	<path style="fill:#333333;" d="M384.67,308.7c-5.53,0-10,4.47-10,9.99c0,5.53,4.47,10,10,10c5.52,0,10-4.47,10-10
		C394.67,313.17,390.189,308.7,384.67,308.7z"/>
	<path style="fill:#333333;" d="M273.67,348.92c-5.53,0-10,4.47-10,10c0,5.52,4.47,10,10,10c5.52,0,10-4.48,10-10
		C283.67,353.39,279.189,348.92,273.67,348.92z"/>
	<path style="fill:#333333;" d="M310.67,348.92c-5.53,0-10,4.47-10,10c0,5.52,4.47,10,10,10c5.52,0,10-4.48,10-10
		C320.67,353.39,316.189,348.92,310.67,348.92z"/>
	<path style="fill:#333333;" d="M384.67,348.92c-5.53,0-10,4.47-10,10c0,5.52,4.47,10,10,10c5.52,0,10-4.48,10-10
		C394.67,353.39,390.189,348.92,384.67,348.92z"/>
	<path style="fill:#333333;" d="M347.67,348.92c-5.53,0-10,4.47-10,10c0,5.52,4.47,10,10,10c5.52,0,10-4.48,10-10
		C357.67,353.39,353.189,348.92,347.67,348.92z"/>
	<rect x="125.75" y="103" style="fill:#333333;" width="27.5" height="57.5"/>
</g>
<rect x="358.75" y="103" style="fill:#1A1A1A;" width="27.5" height="57.5"/>
<g>
</g>
<g>
</g>
<g>
</g>
<g>
</g>
<g>
</g>
<g>
</g>
<g>
</g>
<g>
</g>
<g>
</g>
<g>
</g>
<g>
</g>
<g>
</g>
<g>
</g>
<g>
</g>
<g>
</g>
</svg>
